<?xml version="1.0" encoding="UTF-8" standalone="no"?><!DOCTYPE svg PUBLIC "-//W3C//DTD SVG 1.1//EN" "http://www.w3.org/Graphics/SVG/1.1/DTD/svg11.dtd"><svg width="100%" height="100%" viewBox="0 0 2134 1334" version="1.1" xmlns="http://www.w3.org/2000/svg" xmlns:xlink="http://www.w3.org/1999/xlink" xml:space="preserve" xmlns:serif="http://www.serif.com/" style="fill-rule:evenodd;clip-rule:evenodd;stroke-linejoin:round;stroke-miterlimit:2;"><rect id="Sebec" x="0" y="0" width="2133.33" height="1333.33" style="fill:none;"/><clipPath id="_clip1"><rect x="0" y="0" width="2133.33" height="1333.33"/></clipPath><g clip-path="url(#_clip1)"><g id="Green"><rect id="Green0" x="-0" y="1066.67" width="300" height="266.667" style="fill:#41653e;"/><rect id="Green1" x="266.667" y="1066.67" width="300" height="266.667" style="fill:#6a8e67;"/><rect id="Green2" x="533.333" y="1066.67" width="300" height="266.667" style="fill:#97b295;"/><rect id="Green3" x="800" y="1066.67" width="300" height="266.667" style="fill:#baccb8;"/></g><g id="Yellow"><path id="Yellow0" d="M1366.67,1066.67l-300,-0l-0,266.666l300,0l-0,-266.666Z" style="fill:#7a5f29;"/><path id="Yellow1" d="M1633.33,1066.67l-300,-0l0,266.666l300,0l0,-266.666Z" style="fill:#a48546;"/><path id="Yellow2" d="M1900,1066.67l-300,-0l-0,266.666l300,0l-0,-266.666Z" style="fill:#c5ab77;"/><path id="Yellow3" d="M2166.67,1066.67l-300,-0l-0,266.666l300,0l-0,-266.666Z" style="fill:#d4c19b;"/></g><g id="Cyan"><rect id="Cyan0" x="-0" y="800" width="300" height="266.667" style="fill:#295f7a;"/><rect id="Cyan1" x="266.667" y="800" width="300" height="266.667" style="fill:#498bab;"/><rect id="Cyan2" x="533.333" y="800" width="300" height="266.667" style="fill:#7eafc8;"/><rect id="Cyan3" x="800" y="800" width="300" height="266.667" style="fill:#a9cada;"/></g><g id="Red"><path id="Red0" d="M1366.67,800l-300,-0l-0,266.667l300,-0l-0,-266.667Z" style="fill:#723136;"/><path id="Red1" d="M1633.33,800l-300,-0l0,266.667l300,-0l0,-266.667Z" style="fill:#a04b52;"/><path id="Red2" d="M1900,800l-300,-0l-0,266.667l300,-0l-0,-266.667Z" style="fill:#c17b81;"/><path id="Red3" d="M2166.67,800l-300,-0l-0,266.667l300,-0l-0,-266.667Z" style="fill:#d19ea2;"/></g><g id="Blue"><path id="Blue0" d="M-0,533.333l300,0l-0,266.667l-300,-0l-0,-266.667Z" style="fill:#293d7a;"/><path id="Blue1" d="M266.667,533.333l300,0l-0,266.667l-300,-0l-0,-266.667Z" style="fill:#4962ab;"/><path id="Blue2" d="M533.333,533.333l300,0l0,266.667l-300,-0l0,-266.667Z" style="fill:#7e91c8;"/><path id="Blue3" d="M800,533.333l300,0l-0,266.667l-300,-0l0,-266.667Z" style="fill:#a9b6da;"/></g><g id="Purple"><path id="Purple0" d="M1366.67,533.333l-300,0l-0,266.667l300,0l-0,-266.667Z" style="fill:#653e5f;"/><path id="Purple1" d="M1633.33,533.333l-300,0l0,266.667l300,0l0,-266.667Z" style="fill:#886382;"/><path id="Purple2" d="M1900,533.333l-300,0l-0,266.667l300,-0l-0,-266.667Z" style="fill:#ae8fa8;"/><path id="Purple3" d="M2166.67,533.333l-300,0l-0,266.667l300,-0l-0,-266.667Z" style="fill:#c3acbf;"/></g><g id="White"><path id="White0" d="M0,266.667l300,-0l0,266.666l-300,0l0,-266.666Z" style="fill:#8d95a5;"/><path id="White1" d="M266.667,266.667l300,-0l-0,266.666l-300,0l-0,-266.666Z" style="fill:#afb5c0;"/><path id="White2" d="M533.333,266.667l300,-0l0,266.666l-300,0l0,-266.666Z" style="fill:#cccfd7;"/><path id="White3" d="M800,266.667l300,-0l-0,266.666l-300,0l-0,-266.666Z" style="fill:#e2e4e9;"/><path id="White4" d="M1066.67,266.667l300,-0l-0,266.666l-300,0l-0,-266.666Z" style="fill:#eeeff2;"/><path id="White5" d="M1333.33,266.667l300,-0l0,266.666l-300,0l0,-266.666Z" style="fill:#f6f7f8;"/><path id="White6" d="M1600,266.667l300,-0l-0,266.666l-300,0l0,-266.666Z" style="fill:#fcfcfd;"/><path id="White7" d="M1866.67,266.667l300,-0l-0,266.666l-300,0l-0,-266.666Z" style="fill:#fff;"/></g><g id="Black"><rect id="Black0" x="0" y="-0" width="300" height="266.667" style="fill:#13161b;"/><rect id="Black1" x="266.667" y="-0" width="300" height="266.667" style="fill:#181b21;"/><rect id="Black2" x="533.333" y="-0" width="300" height="266.667" style="fill:#1c1f26;"/><path id="Black3" d="M800,-0l300,-0l-0,266.667l-300,-0l0,-266.667Z" style="fill:#242932;"/><path id="Black4" d="M1066.67,-0l300,-0l-0,266.667l-300,-0l-0,-266.667Z" style="fill:#2b303b;"/><path id="Black5" d="M1333.33,-0l300,-0l0,266.667l-300,-0l0,-266.667Z" style="fill:#3a4150;"/><path id="Black6" d="M1600,-0l300,-0l-0,266.667l-300,-0l0,-266.667Z" style="fill:#4b5468;"/><path id="Black7" d="M1866.67,-0l300,-0l-0,266.667l-300,-0l-0,-266.667Z" style="fill:#5e6a82;"/></g></g><g id="Dawn"></g></svg>