<?xml version="1.0" encoding="UTF-8" standalone="no"?><!DOCTYPE svg PUBLIC "-//W3C//DTD SVG 1.1//EN" "http://www.w3.org/Graphics/SVG/1.1/DTD/svg11.dtd"><svg width="100%" height="100%" viewBox="0 0 2134 1600" version="1.1" xmlns="http://www.w3.org/2000/svg" xmlns:xlink="http://www.w3.org/1999/xlink" xml:space="preserve" xmlns:serif="http://www.serif.com/" style="fill-rule:evenodd;clip-rule:evenodd;stroke-linejoin:round;stroke-miterlimit:2;"><rect id="Sebec-v1" x="0" y="0" width="2133.33" height="1600" style="fill:none;"/><clipPath id="_clip1"><rect x="0" y="0" width="2133.33" height="1600"/></clipPath><g clip-path="url(#_clip1)"><g id="Solar"><rect id="SolarYellow1" x="1866.67" y="1333.33" width="266.667" height="266.667" style="fill:#ecce93;"/><rect id="SolarYellow0" x="1866.67" y="1066.67" width="266.667" height="266.667" style="fill:#e4bb67;"/><rect id="SolarOrange1" x="1600" y="1333.33" width="266.667" height="266.667" style="fill:#d28f79;"/><rect id="SolarOrange0" x="1600" y="1066.67" width="266.667" height="266.667" style="fill:#c67053;"/><rect id="SolarRed1" x="1333.33" y="1333.33" width="266.667" height="266.667" style="fill:#ba5e66;"/><rect id="SolarRed0" x="1333.33" y="1066.67" width="266.667" height="266.667" style="fill:#a1454d;"/><rect id="SolarPurple1" x="1066.67" y="1333.33" width="266.667" height="266.667" style="fill:#bc8fb5;"/><rect id="SolarPurple0" x="1066.67" y="1066.67" width="266.667" height="266.667" style="fill:#a9709f;"/></g><g id="Cedar"><rect id="Cedar3" x="800" y="1333.33" width="266.667" height="266.667" style="fill:#9fbf88;"/><rect id="Cedar2" x="533.333" y="1333.33" width="266.667" height="266.667" style="fill:#8aae6f;"/><rect id="Cedar1" x="266.667" y="1333.33" width="266.667" height="266.667" style="fill:#759a5b;"/><rect id="Cedar0" x="-0" y="1333.33" width="266.667" height="266.667" style="fill:#627e4e;"/></g><g id="Spruce"><rect id="Spruce3" x="800" y="1066.67" width="266.667" height="266.667" style="fill:#88bf9f;"/><rect id="Spruce2" x="533.333" y="1066.67" width="266.667" height="266.667" style="fill:#6fae8a;"/><rect id="Spruce1" x="266.667" y="1066.67" width="266.667" height="266.667" style="fill:#5b9a75;"/><rect id="Spruce0" x="-0" y="1066.67" width="266.667" height="266.667" style="fill:#4e7e62;"/></g><g id="Cerulean"><rect id="Cerulean3" x="800" y="800" width="266.667" height="266.667" style="fill:#7bb7cc;"/><rect id="Cerulean2" x="533.333" y="800" width="266.667" height="266.667" style="fill:#62a5bc;"/><rect id="Cerulean1" x="266.667" y="800" width="266.667" height="266.667" style="fill:#4e90a6;"/><rect id="Cerulean0" x="0" y="800" width="266.667" height="266.667" style="fill:#437789;"/></g><g id="Sapphire"><path id="Sapphire3" d="M1866.67,800l266.666,-0l0,266.667l-266.666,-0l-0,-266.667Z" style="fill:#849ec2;"/><path id="Sapphire2" d="M1600,800l266.667,-0l-0,266.667l-266.667,-0l-0,-266.667Z" style="fill:#6988b5;"/><path id="Sapphire1" d="M1333.33,800l266.667,-0l-0,266.667l-266.667,-0l0,-266.667Z" style="fill:#4a6a96;"/><path id="Sapphire0" d="M1066.67,800l266.666,-0l0,266.667l-266.666,-0l-0,-266.667Z" style="fill:#405c82;"/></g><g id="Shine"><path id="Shine7" d="M1866.67,533.333l266.666,0l0,266.667l-266.666,-0l-0,-266.667Z" style="fill:#edf0f5;"/><path id="Shine6" d="M1600,533.333l266.667,0l-0,266.667l-266.667,-0l-0,-266.667Z" style="fill:#e5e9f0;"/><path id="Shine5" d="M1333.33,533.333l266.667,0l-0,266.667l-266.667,-0l0,-266.667Z" style="fill:#d9dee8;"/><path id="Shine4" d="M1066.67,533.333l266.666,0l0,266.667l-266.666,-0l-0,-266.667Z" style="fill:#ccd3e0;"/><path id="Shine3" d="M800,533.333l266.667,0l-0,266.667l-266.667,-0l-0,-266.667Z" style="fill:#c0c8d8;"/><path id="Shine2" d="M533.333,533.333l266.667,0l-0,266.667l-266.667,-0l0,-266.667Z" style="fill:#b6bece;"/><path id="Shine1" d="M266.667,533.333l266.666,0l0,266.667l-266.666,-0l-0,-266.667Z" style="fill:#abb3c4;"/><path id="Shine0" d="M0,533.333l266.667,0l-0,266.667l-266.667,-0l0,-266.667Z" style="fill:#9fa9bc;"/></g><g id="Sunrise"><path id="Sunrise7" d="M1866.67,266.667l266.666,-0l0,266.666l-266.666,0l-0,-266.666Z" style="fill:#f6f6f4;"/><path id="Sunrise6" d="M1600,266.667l266.667,-0l-0,266.666l-266.667,0l-0,-266.666Z" style="fill:#efefeb;"/><path id="Sunrise5" d="M1333.33,266.667l266.667,-0l-0,266.666l-266.667,0l0,-266.666Z" style="fill:#e8e7e3;"/><path id="Sunrise4" d="M1066.67,266.667l266.666,-0l0,266.666l-266.666,0l-0,-266.666Z" style="fill:#dfded8;"/><path id="Sunrise3" d="M800,266.667l266.667,-0l-0,266.666l-266.667,0l-0,-266.666Z" style="fill:#d5d4cd;"/><path id="Sunrise2" d="M533.333,266.667l266.667,-0l-0,266.666l-266.667,0l0,-266.666Z" style="fill:#cac9c4;"/><path id="Sunrise1" d="M266.667,266.667l266.666,-0l0,266.666l-266.666,0l-0,-266.666Z" style="fill:#c1bfb9;"/><path id="Sunrise0" d="M0,266.667l266.667,-0l-0,266.666l-266.667,0l0,-266.666Z" style="fill:#b6b5af;"/></g><g id="Twilight"><path id="Twilight7" d="M1600,0l266.667,0l-0,266.667l-266.667,-0l0,-266.667Z" style="fill:#4c566a;"/><path id="Twilight6" d="M1866.67,0l266.666,0l0,266.667l-266.666,-0l-0,-266.667Z" style="fill:#556077;"/><path id="Twilight5" d="M1333.33,-0l266.667,-0l0,266.667l-266.667,-0l0,-266.667Z" style="fill:#444d5e;"/><path id="Twilight4" d="M1066.67,0l266.666,0l0,266.667l-266.666,-0l-0,-266.667Z" style="fill:#3b4352;"/><path id="Twilight3" d="M800,0l266.667,0l-0,266.667l-266.667,-0l0,-266.667Z" style="fill:#2e3440;"/><rect id="Twilight2" x="533.333" y="0" width="266.667" height="266.667" style="fill:#212630;"/><rect id="Twilight1" x="266.667" y="0" width="266.667" height="266.667" style="fill:#1b1f27;"/><rect id="Twilight0" x="0" y="0" width="266.667" height="266.667" style="fill:#15181e;"/></g></g><g id="Solar1" serif:id="Solar"></g><g id="Solar2" serif:id="Solar"></g><g id="Tree-Sketches" serif:id="Tree Sketches"></g></svg>