<?xml version="1.0" encoding="UTF-8" standalone="no"?><!DOCTYPE svg PUBLIC "-//W3C//DTD SVG 1.1//EN" "http://www.w3.org/Graphics/SVG/1.1/DTD/svg11.dtd"><svg width="100%" height="100%" viewBox="0 0 513 385" version="1.1" xmlns="http://www.w3.org/2000/svg" xmlns:xlink="http://www.w3.org/1999/xlink" xml:space="preserve" xmlns:serif="http://www.serif.com/" style="fill-rule:evenodd;clip-rule:evenodd;stroke-linejoin:round;stroke-miterlimit:2;"><rect id="Sebec.v1" x="0.221" y="0.307" width="512" height="384" style="fill:none;"/><clipPath id="_clip1"><rect x="0.221" y="0.307" width="512" height="384"/></clipPath><g clip-path="url(#_clip1)"><g id="Solar"><rect id="SolarYellow1" x="448.221" y="320.307" width="64" height="64" style="fill:#ecce93;"/><rect id="SolarYellow0" x="448.221" y="256.307" width="64" height="64" style="fill:#e4bb67;"/><rect id="SolarOrange1" x="384.221" y="320.307" width="64" height="64" style="fill:#d28f79;"/><rect id="SolarOrange0" x="384.221" y="256.307" width="64" height="64" style="fill:#c67053;"/><rect id="SolarRed1" x="320.221" y="320.307" width="64" height="64" style="fill:#ba5e66;"/><rect id="SolarRed0" x="320.221" y="256.307" width="64" height="64" style="fill:#a1454d;"/><rect id="SolarPurple1" x="256.221" y="320.307" width="64" height="64" style="fill:#bc8fb5;"/><rect id="SolarPurple0" x="256.221" y="256.307" width="64" height="64" style="fill:#a9709f;"/></g><g id="Cedar"><rect id="Cedar3" x="192.221" y="320.307" width="64" height="64" style="fill:#9fbf88;"/><rect id="Cedar2" x="128.221" y="320.307" width="64" height="64" style="fill:#8aae6f;"/><rect id="Cedar1" x="64.221" y="320.307" width="64" height="64" style="fill:#759a5b;"/><rect id="Cedar0" x="0.221" y="320.307" width="64" height="64" style="fill:#627e4e;"/></g><g id="Spruce"><rect id="Spruce3" x="192.221" y="256.307" width="64" height="64" style="fill:#88bf9f;"/><rect id="Spruce2" x="128.221" y="256.307" width="64" height="64" style="fill:#6fae8a;"/><rect id="Spruce1" x="64.221" y="256.307" width="64" height="64" style="fill:#5b9a75;"/><rect id="Spruce0" x="0.221" y="256.307" width="64" height="64" style="fill:#4e7e62;"/></g><g id="Cerulean"><rect id="Cerulean3" x="192.221" y="192.307" width="64" height="64" style="fill:#7bb7cc;"/><rect id="Cerulean2" x="128.221" y="192.307" width="64" height="64" style="fill:#62a5bc;"/><rect id="Cerulean1" x="64.221" y="192.307" width="64" height="64" style="fill:#4e90a6;"/><rect id="Cerulean0" x="0.221" y="192.307" width="64" height="64" style="fill:#437789;"/></g><g id="Sapphire"><path id="Sapphire3" d="M448.221,192.307l64,0l0,64l-64,0l0,-64Z" style="fill:#849ec2;"/><path id="Sapphire2" d="M384.221,192.307l64,0l0,64l-64,0l0,-64Z" style="fill:#6988b5;"/><path id="Sapphire1" d="M320.221,192.307l64,0l0,64l-64,0l0,-64Z" style="fill:#4a6a96;"/><path id="Sapphire0" d="M256.221,192.307l64,0l0,64l-64,0l0,-64Z" style="fill:#405c82;"/></g><g id="Shine"><path id="Shine7" d="M448.221,128.307l64,0l0,64l-64,0l0,-64Z" style="fill:#edf0f5;"/><path id="Shine6" d="M384.221,128.307l64,0l0,64l-64,0l0,-64Z" style="fill:#e5e9f0;"/><path id="Shine5" d="M320.221,128.307l64,0l0,64l-64,0l0,-64Z" style="fill:#d9dee8;"/><path id="Shine4" d="M256.221,128.307l64,0l0,64l-64,0l0,-64Z" style="fill:#ccd3e0;"/><path id="Shine3" d="M192.221,128.307l64,0l0,64l-64,0l0,-64Z" style="fill:#c0c8d8;"/><path id="Shine2" d="M128.221,128.307l64,0l0,64l-64,0l0,-64Z" style="fill:#b6bece;"/><path id="Shine1" d="M64.221,128.307l64,0l0,64l-64,0l0,-64Z" style="fill:#abb3c4;"/><path id="Shine0" d="M0.221,128.307l64,0l0,64l-64,0l0,-64Z" style="fill:#9fa9bc;"/></g><g id="Sunrise"><path id="Sunrise7" d="M448.221,64.307l64,0l0,64l-64,0l0,-64Z" style="fill:#f6f6f4;"/><path id="Sunrise6" d="M384.221,64.307l64,0l0,64l-64,0l0,-64Z" style="fill:#efefeb;"/><path id="Sunrise5" d="M320.221,64.307l64,0l0,64l-64,0l0,-64Z" style="fill:#e8e7e3;"/><path id="Sunrise4" d="M256.221,64.307l64,0l0,64l-64,0l0,-64Z" style="fill:#dfded8;"/><path id="Sunrise3" d="M192.221,64.307l64,0l0,64l-64,0l0,-64Z" style="fill:#d5d4cd;"/><path id="Sunrise2" d="M128.221,64.307l64,0l0,64l-64,0l0,-64Z" style="fill:#cac9c4;"/><path id="Sunrise1" d="M64.221,64.307l64,0l0,64l-64,0l0,-64Z" style="fill:#c1bfb9;"/><path id="Sunrise0" d="M0.221,64.307l64,0l0,64l-64,0l0,-64Z" style="fill:#b6b5af;"/></g><g id="Twilight"><path id="Twilight7" d="M384.221,0.307l64,0l0,64l-64,0l0,-64Z" style="fill:#4c566a;"/><path id="Twilight6" d="M448.221,0.307l64,0l0,64l-64,0l0,-64Z" style="fill:#556077;"/><path id="Twilight5" d="M320.221,0.307l64,0l0,64l-64,0l0,-64Z" style="fill:#444d5e;"/><path id="Twilight4" d="M256.221,0.307l64,0l0,64l-64,0l0,-64Z" style="fill:#3b4352;"/><path id="Twilight3" d="M192.221,0.307l64,0l0,64l-64,0l0,-64Z" style="fill:#2e3440;"/><rect id="Twilight2" x="128.221" y="0.307" width="64" height="64" style="fill:#212630;"/><rect id="Twilight1" x="64.221" y="0.307" width="64" height="64" style="fill:#1b1f27;"/><rect id="Twilight0" x="0.221" y="0.307" width="64" height="64" style="fill:#15181e;"/></g></g></svg>