<?xml version="1.0" encoding="UTF-8" standalone="no"?><!DOCTYPE svg PUBLIC "-//W3C//DTD SVG 1.1//EN" "http://www.w3.org/Graphics/SVG/1.1/DTD/svg11.dtd"><svg width="100%" height="100%" viewBox="0 0 513 321" version="1.1" xmlns="http://www.w3.org/2000/svg" xmlns:xlink="http://www.w3.org/1999/xlink" xml:space="preserve" xmlns:serif="http://www.serif.com/" style="fill-rule:evenodd;clip-rule:evenodd;stroke-linejoin:round;stroke-miterlimit:2;"><rect id="Sebec.v1.b" x="0.982" y="0.307" width="512" height="320" style="fill:none;"/><clipPath id="_clip1"><rect x="0.982" y="0.307" width="512" height="320"/></clipPath><g clip-path="url(#_clip1)"><g id="Solar"><rect id="SolarYellow1" x="448.982" y="256.307" width="64" height="64" style="fill:#dac08b;"/><rect id="SolarYellow0" x="448.982" y="192.307" width="64" height="64" style="fill:#b19359;"/><rect id="SolarOrange1" x="384.982" y="256.307" width="64" height="64" style="fill:#c8826a;"/><rect id="SolarOrange0" x="384.982" y="192.307" width="64" height="64" style="fill:#ab6249;"/><rect id="SolarRed1" x="320.982" y="256.307" width="64" height="64" style="fill:#ad5259;"/><rect id="SolarRed0" x="320.982" y="192.307" width="64" height="64" style="fill:#84333a;"/><rect id="SolarPurple1" x="256.982" y="256.307" width="64" height="64" style="fill:#b67cac;"/><rect id="SolarPurple0" x="256.982" y="192.307" width="64" height="64" style="fill:#815679;"/></g><g id="Cedar"><rect id="Cedar3" x="192.982" y="256.307" width="64" height="64" style="fill:#9fbf88;"/><rect id="Cedar2" x="128.982" y="256.307" width="64" height="64" style="fill:#7fa762;"/><rect id="Cedar1" x="64.982" y="256.307" width="64" height="64" style="fill:#62814b;"/><rect id="Cedar0" x="0.982" y="256.307" width="64" height="64" style="fill:#4e653e;"/></g><g id="Spruce"><rect id="Spruce3" x="192.982" y="192.307" width="64" height="64" style="fill:#88bf9f;"/><rect id="Spruce2" x="128.982" y="192.307" width="64" height="64" style="fill:#62a77f;"/><rect id="Spruce1" x="64.982" y="192.307" width="64" height="64" style="fill:#4b8162;"/><rect id="Spruce0" x="0.982" y="192.307" width="64" height="64" style="fill:#3e654e;"/></g><g id="Cerulean"><rect id="Cerulean3" x="192.982" y="128.307" width="64" height="64" style="fill:#7bb7cc;"/><rect id="Cerulean2" x="128.982" y="128.307" width="64" height="64" style="fill:#62a5bc;"/><rect id="Cerulean1" x="64.982" y="128.307" width="64" height="64" style="fill:#4e90a6;"/><rect id="Cerulean0" x="0.982" y="128.307" width="64" height="64" style="fill:#346879;"/></g><g id="Sapphire"><path id="Sapphire3" d="M448.982,128.307l64,0l0,64l-64,0l0,-64Z" style="fill:#7992c3;"/><path id="Sapphire2" d="M384.982,128.307l64,0l0,64l-64,0l0,-64Z" style="fill:#5675b3;"/><path id="Sapphire1" d="M320.982,128.307l64,0l0,64l-64,0l0,-64Z" style="fill:#3a5488;"/><path id="Sapphire0" d="M256.982,128.307l64,0l0,64l-64,0l0,-64Z" style="fill:#2f4674;"/></g><g id="Sunrise"><path id="Sunrise7" d="M448.982,64.307l64,0l0,64l-64,0l0,-64Z" style="fill:#fbfbf9;"/><path id="Sunrise6" d="M384.982,64.307l64,0l0,64l-64,0l0,-64Z" style="fill:#f7f6f2;"/><path id="Sunrise5" d="M320.982,64.307l64,0l0,64l-64,0l0,-64Z" style="fill:#f1f0e9;"/><path id="Sunrise4" d="M256.982,64.307l64,0l0,64l-64,0l0,-64Z" style="fill:#e8e6de;"/><path id="Sunrise3" d="M192.982,64.307l64,0l0,64l-64,0l0,-64Z" style="fill:#dedcd3;"/><path id="Sunrise2" d="M128.982,64.307l64,0l0,64l-64,0l0,-64Z" style="fill:#d1cec2;"/><path id="Sunrise1" d="M64.982,64.307l64,0l0,64l-64,0l0,-64Z" style="fill:#c0bdaf;"/><path id="Sunrise0" d="M0.982,64.307l64,0l0,64l-64,0l0,-64Z" style="fill:#b1aea0;"/></g><g id="Twilight"><path id="Twilight7" d="M448.982,0.307l64,0l0,64l-64,0l0,-64Z" style="fill:#59657d;"/><path id="Twilight6" d="M384.982,0.307l64,0l0,64l-64,0l0,-64Z" style="fill:#4c566a;"/><path id="Twilight5" d="M320.982,0.307l64,0l0,64l-64,0l0,-64Z" style="fill:#3f485a;"/><path id="Twilight4" d="M256.982,0.307l64,0l0,64l-64,0l0,-64Z" style="fill:#323a48;"/><path id="Twilight3" d="M192.982,0.307l64,0l0,64l-64,0l0,-64Z" style="fill:#272d3a;"/><rect id="Twilight2" x="128.982" y="0.307" width="64" height="64" style="fill:#202632;"/><rect id="Twilight1" x="64.982" y="0.307" width="64" height="64" style="fill:#191e29;"/><rect id="Twilight0" x="0.982" y="0.307" width="64" height="64" style="fill:#131720;"/></g></g></svg>