<?xml version="1.0" encoding="UTF-8" standalone="no"?><!DOCTYPE svg PUBLIC "-//W3C//DTD SVG 1.1//EN" "http://www.w3.org/Graphics/SVG/1.1/DTD/svg11.dtd"><svg width="100%" height="100%" viewBox="0 0 513 321" version="1.1" xmlns="http://www.w3.org/2000/svg" xmlns:xlink="http://www.w3.org/1999/xlink" xml:space="preserve" xmlns:serif="http://www.serif.com/" style="fill-rule:evenodd;clip-rule:evenodd;stroke-linejoin:round;stroke-miterlimit:2;"><rect id="Sebec.v4" x="0.221" y="0.097" width="512" height="320" style="fill:none;"/><clipPath id="_clip1"><rect x="0.221" y="0.097" width="512" height="320"/></clipPath><g clip-path="url(#_clip1)"><g id="Solar"><rect id="SolarYellow1" x="448.221" y="256.097" width="64" height="64" style="fill:#d9bf8c;"/><rect id="SolarYellow0" x="448.221" y="192.097" width="64" height="64" style="fill:#d6ad5c;"/><rect id="SolarOrange1" x="384.221" y="256.097" width="64" height="64" style="fill:#d28f79;"/><rect id="SolarOrange0" x="384.221" y="192.097" width="64" height="64" style="fill:#b3664d;"/><rect id="SolarRed1" x="320.221" y="256.097" width="64" height="64" style="fill:#ba5e66;"/><rect id="SolarRed0" x="320.221" y="192.097" width="64" height="64" style="fill:#a1454d;"/><rect id="SolarPurple1" x="256.221" y="256.097" width="64" height="64" style="fill:#b380aa;"/><rect id="SolarPurple0" x="256.221" y="192.097" width="64" height="64" style="fill:#9f6095;"/></g><g id="Cedar"><rect id="Cedar3" x="192.221" y="256.097" width="64" height="64" style="fill:#a0b691;"/><rect id="Cedar2" x="128.221" y="256.097" width="64" height="64" style="fill:#8aa975;"/><rect id="Cedar1" x="64.221" y="256.097" width="64" height="64" style="fill:#759b59;"/><rect id="Cedar0" x="0.221" y="256.097" width="64" height="64" style="fill:#618547;"/></g><g id="Spruce"><rect id="Spruce3" x="192.221" y="192.097" width="64" height="64" style="fill:#91b6a0;"/><rect id="Spruce2" x="128.221" y="192.097" width="64" height="64" style="fill:#75a98a;"/><rect id="Spruce1" x="64.221" y="192.097" width="64" height="64" style="fill:#599b75;"/><rect id="Spruce0" x="0.221" y="192.097" width="64" height="64" style="fill:#478561;"/></g><g id="Cerulean"><rect id="Cerulean3" x="192.221" y="128.097" width="64" height="64" style="fill:#9cbec9;"/><rect id="Cerulean2" x="128.221" y="128.097" width="64" height="64" style="fill:#7ab;"/><rect id="Cerulean1" x="64.221" y="128.097" width="64" height="64" style="fill:#5097af;"/><rect id="Cerulean0" x="0.221" y="128.097" width="64" height="64" style="fill:#3d7a8f;"/></g><g id="Sapphire"><path id="Sapphire3" d="M448.221,128.097l64,-0l0,64l-64,-0l0,-64Z" style="fill:#9cafc9;"/><path id="Sapphire2" d="M384.221,128.097l64,-0l0,64l-64,-0l0,-64Z" style="fill:#7793bb;"/><path id="Sapphire1" d="M320.221,128.097l64,-0l0,64l-64,-0l0,-64Z" style="fill:#5078af;"/><path id="Sapphire0" d="M256.221,128.097l64,-0l0,64l-64,-0l0,-64Z" style="fill:#3d5f8f;"/></g><g id="Sunrise"><path id="Sunrise7" d="M448.221,64.097l64,-0l0,64l-64,-0l0,-64Z" style="fill:#f6f6f4;"/><path id="Sunrise6" d="M384.221,64.097l64,-0l0,64l-64,-0l0,-64Z" style="fill:#edece8;"/><path id="Sunrise5" d="M320.221,64.097l64,-0l0,64l-64,-0l0,-64Z" style="fill:#e3e2dd;"/><path id="Sunrise4" d="M256.221,64.097l64,-0l0,64l-64,-0l0,-64Z" style="fill:#d6d4cd;"/><path id="Sunrise3" d="M192.221,64.097l64,-0l0,64l-64,-0l0,-64Z" style="fill:#cbcac2;"/><path id="Sunrise2" d="M128.221,64.097l64,-0l0,64l-64,-0l0,-64Z" style="fill:#bcbab3;"/><path id="Sunrise1" d="M64.221,64.097l64,-0l0,64l-64,-0l0,-64Z" style="fill:#aeaca3;"/><path id="Sunrise0" d="M0.221,64.097l64,-0l0,64l-64,-0l0,-64Z" style="fill:#9d9c95;"/></g><g id="Twilight"><path id="Twilight7" d="M384.221,0.097l64,-0l0,64l-64,-0l0,-64Z" style="fill:#485265;"/><path id="Twilight6" d="M448.221,0.097l64,-0l0,64l-64,-0l0,-64Z" style="fill:#556077;"/><path id="Twilight5" d="M320.221,0.097l64,-0l0,64l-64,-0l0,-64Z" style="fill:#3c4453;"/><path id="Twilight4" d="M256.221,0.097l64,-0l0,64l-64,-0l0,-64Z" style="fill:#313744;"/><path id="Twilight3" d="M192.221,0.097l64,-0l0,64l-64,-0l0,-64Z" style="fill:#242932;"/><rect id="Twilight2" x="128.221" y="0.097" width="64" height="64" style="fill:#1b1f27;"/><rect id="Twilight1" x="64.221" y="0.097" width="64" height="64" style="fill:#13161b;"/><rect id="Twilight0" x="0.221" y="0.097" width="64" height="64" style="fill:#0d0e12;"/></g></g></svg>