<?xml version="1.0" encoding="UTF-8" standalone="no"?><!DOCTYPE svg PUBLIC "-//W3C//DTD SVG 1.1//EN" "http://www.w3.org/Graphics/SVG/1.1/DTD/svg11.dtd"><svg width="100%" height="100%" viewBox="0 0 2134 1334" version="1.1" xmlns="http://www.w3.org/2000/svg" xmlns:xlink="http://www.w3.org/1999/xlink" xml:space="preserve" xmlns:serif="http://www.serif.com/" style="fill-rule:evenodd;clip-rule:evenodd;stroke-linejoin:round;stroke-miterlimit:2;"><rect id="TwilightLake.v5" x="0" y="0" width="2133.33" height="1333.33" style="fill:none;"/><clipPath id="_clip1"><rect x="0" y="0" width="2133.33" height="1333.33"/></clipPath><g clip-path="url(#_clip1)"><g id="Solar"><path id="SolarYellow2" d="M1333.33,266.667l-266.666,-0l-0,266.666l266.666,0l0,-266.666Z" style="fill:#e4c992;"/><path id="SolarYellow1" d="M1333.33,533.333l-266.666,0l-0,266.667l266.666,0l0,-266.667Z" style="fill:#d1b171;"/><path id="SolarYellow0" d="M1333.33,800l-266.666,0l-0,266.667l266.666,-0l0,-266.667Z" style="fill:#b89856;"/><path id="SolarOrange2" d="M1600,266.667l-266.667,-0l0,266.666l266.667,0l0,-266.666Z" style="fill:#d08870;"/><path id="SolarOrange1" d="M1600,533.333l-266.667,0l0,266.667l266.667,0l0,-266.667Z" style="fill:#be6c50;"/><path id="SolarOrange0" d="M1600,800l-266.667,0l0,266.667l266.667,-0l0,-266.667Z" style="fill:#9b5741;"/><path id="SolarRed2" d="M1866.67,266.667l-266.667,-0l-0,266.666l266.667,0l-0,-266.666Z" style="fill:#bf6169;"/><path id="SolarRed1" d="M1866.67,533.333l-266.667,0l-0,266.667l266.667,0l-0,-266.667Z" style="fill:#a7444c;"/><path id="SolarRed0" d="M1866.67,800l-266.667,0l-0,266.667l266.667,-0l-0,-266.667Z" style="fill:#82353c;"/><path id="SolarPurple2" d="M2133.33,266.667l-266.666,-0l-0,266.666l266.666,0l0,-266.666Z" style="fill:#b48eae;"/><path id="SolarPurple1" d="M2133.33,533.333l-266.666,0l-0,266.667l266.666,0l0,-266.667Z" style="fill:#9f6f97;"/><path id="SolarPurple0" d="M2133.33,800l-266.666,0l-0,266.667l266.666,-0l0,-266.667Z" style="fill:#84587c;"/></g><g id="Evergreen"><rect id="Evergreen3" x="800" y="800" width="266.667" height="266.667" style="fill:#a6cda2;"/><rect id="Evergreen2" x="533.333" y="800" width="266.667" height="266.667" style="fill:#79b474;"/><rect id="Evergreen1" x="266.667" y="800" width="266.667" height="266.667" style="fill:#54924f;"/><rect id="Evergreen0" x="-0" y="800" width="266.667" height="266.667" style="fill:#396336;"/></g><g id="Cerulean"><rect id="Cerulean3" x="800" y="533.333" width="266.667" height="266.667" style="fill:#94cfdb;"/><rect id="Cerulean2" x="533.333" y="533.333" width="266.667" height="266.667" style="fill:#5eb8c9;"/><rect id="Cerulean1" x="266.667" y="533.333" width="266.667" height="266.667" style="fill:#3896a8;"/><rect id="Cerulean0" x="0" y="533.333" width="266.667" height="266.667" style="fill:#266673;"/></g><g id="Sapphire"><path id="Sapphire3" d="M800,266.667l266.667,-0l-0,266.666l-266.667,0l0,-266.666Z" style="fill:#94bedb;"/><path id="Sapphire2" d="M533.333,266.667l266.667,-0l0,266.666l-266.667,0l0,-266.666Z" style="fill:#5e9dc9;"/><path id="Sapphire1" d="M266.667,266.667l266.666,-0l0,266.666l-266.666,0l-0,-266.666Z" style="fill:#387aa8;"/><path id="Sapphire0" d="M-0,266.667l266.667,-0l-0,266.666l-266.667,0l-0,-266.666Z" style="fill:#265373;"/></g><g id="Dawn"><path id="Dawn7" d="M266.667,266.667l-266.667,-0l0,-266.667l266.667,0l-0,266.667Z" style="fill:#fcfcfd;"/><path id="Dawn6" d="M533.333,266.667l-266.666,-0l-0,-266.667l266.666,0l0,266.667Z" style="fill:#f9fafb;"/><path id="Dawn5" d="M800,266.667l-266.667,-0l0,-266.667l266.667,0l0,266.667Z" style="fill:#f6f7f8;"/><path id="Dawn4" d="M1066.67,266.667l-266.667,-0l0,-266.667l266.667,0l-0,266.667Z" style="fill:#f1f2f4;"/><path id="Dawn3" d="M1333.33,266.667l-266.666,-0l-0,-266.667l266.666,0l0,266.667Z" style="fill:#e8eaed;"/><path id="Dawn2" d="M1600,266.667l-266.667,-0l0,-266.667l266.667,0l0,266.667Z" style="fill:#dddfe4;"/><path id="Dawn1" d="M1866.67,266.667l-266.667,-0l0,-266.667l266.667,0l-0,266.667Z" style="fill:#ced2d9;"/><path id="Dawn0" d="M2133.33,266.667l-266.666,-0l-0,-266.667l266.666,0l0,266.667Z" style="fill:#c0c5ce;"/></g><g id="Dusk"><path id="Dusk7" d="M1866.67,1066.67l266.666,-0l0,266.666l-266.666,0l-0,-266.666Z" style="fill:#5e6a82;"/><path id="Dusk6" d="M1600,1066.67l266.667,-0l-0,266.666l-266.667,0l0,-266.666Z" style="fill:#454d5f;"/><path id="Dusk5" d="M1333.33,1066.67l266.667,-0l0,266.666l-266.667,0l0,-266.666Z" style="fill:#333a47;"/><path id="Dusk4" d="M1066.67,1066.67l266.666,-0l0,266.666l-266.666,0l-0,-266.666Z" style="fill:#272b35;"/><path id="Dusk3" d="M800,1066.67l266.667,-0l-0,266.666l-266.667,0l0,-266.666Z" style="fill:#1e2229;"/><rect id="Dusk2" x="533.333" y="1066.67" width="266.667" height="266.667" style="fill:#1a1d23;"/><rect id="Dusk1" x="266.667" y="1066.67" width="266.667" height="266.667" style="fill:#15181e;"/><rect id="Dusk0" x="0" y="1066.67" width="266.667" height="266.667" style="fill:#111318;"/></g></g></svg>