<?xml version="1.0" encoding="UTF-8" standalone="no"?><!DOCTYPE svg PUBLIC "-//W3C//DTD SVG 1.1//EN" "http://www.w3.org/Graphics/SVG/1.1/DTD/svg11.dtd"><svg width="100%" height="100%" viewBox="0 0 2134 1334" version="1.1" xmlns="http://www.w3.org/2000/svg" xmlns:xlink="http://www.w3.org/1999/xlink" xml:space="preserve" xmlns:serif="http://www.serif.com/" style="fill-rule:evenodd;clip-rule:evenodd;stroke-linejoin:round;stroke-miterlimit:2;"><rect id="TwilightLake.v6" x="-0" y="0" width="2133.33" height="1333.33" style="fill:none;"/><clipPath id="_clip1"><rect x="-0" y="0" width="2133.33" height="1333.33"/></clipPath><g clip-path="url(#_clip1)"><g id="Evergreen"><rect id="Evergreen0" x="-0" y="1066.67" width="300" height="266.667" style="fill:#456c42;"/><rect id="Evergreen1" x="266.667" y="1066.67" width="300" height="266.667" style="fill:#6a8e67;"/><rect id="Evergreen2" x="533.333" y="1066.67" width="300" height="266.667" style="fill:#91ae8f;"/><rect id="Evergreen3" x="800" y="1066.67" width="300" height="266.667" style="fill:#aec3ac;"/></g><g id="Cerulean"><rect id="Cerulean0" x="-0" y="800" width="300" height="266.667" style="fill:#295f7a;"/><rect id="Cerulean1" x="266.667" y="800" width="300" height="266.667" style="fill:#4685a4;"/><rect id="Cerulean2" x="533.333" y="800" width="300" height="266.667" style="fill:#77abc5;"/><rect id="Cerulean3" x="800" y="800" width="300" height="266.667" style="fill:#9bc1d4;"/></g><g id="Sapphire"><path id="Sapphire0" d="M-0,533.333l300,0l-0,266.667l-300,0l-0,-266.667Z" style="fill:#293d7a;"/><path id="Sapphire1" d="M266.667,533.333l300,0l-0,266.667l-300,0l-0,-266.667Z" style="fill:#465ea4;"/><path id="Sapphire2" d="M533.333,533.333l300,0l0,266.667l-300,0l0,-266.667Z" style="fill:#778bc5;"/><path id="Sapphire3" d="M800,533.333l300,0l-0,266.667l-300,0l0,-266.667Z" style="fill:#9ba9d4;"/></g><g id="Solar"><path id="SolarYellow2" d="M1366.67,533.333l-300,0l-0,266.667l300,-0l-0,-266.667Z" style="fill:#e4c992;"/><path id="SolarYellow1" d="M1366.67,800l-300,0l-0,266.667l300,-0l-0,-266.667Z" style="fill:#d1b171;"/><path id="SolarYellow0" d="M1366.67,1066.67l-300,-0l-0,266.666l300,0l-0,-266.666Z" style="fill:#b89856;"/><path id="SolarOrange2" d="M1633.33,533.333l-300,0l0,266.667l300,-0l0,-266.667Z" style="fill:#d08870;"/><path id="SolarOrange1" d="M1633.33,800l-300,0l0,266.667l300,-0l0,-266.667Z" style="fill:#be6c50;"/><path id="SolarOrange0" d="M1633.33,1066.67l-300,-0l0,266.666l300,0l0,-266.666Z" style="fill:#9b5741;"/><path id="SolarRed2" d="M1900,533.333l-300,0l0,266.667l300,-0l-0,-266.667Z" style="fill:#bf6169;"/><path id="SolarRed1" d="M1900,800l-300,0l0,266.667l300,-0l-0,-266.667Z" style="fill:#a7444c;"/><path id="SolarRed0" d="M1900,1066.67l-300,-0l0,266.666l300,0l-0,-266.666Z" style="fill:#82353c;"/><path id="SolarPurple2" d="M2166.67,533.333l-300,0l-0,266.667l300,-0l-0,-266.667Z" style="fill:#b48eae;"/><path id="SolarPurple1" d="M2166.67,800l-300,0l-0,266.667l300,-0l-0,-266.667Z" style="fill:#9f6f97;"/><path id="SolarPurple0" d="M2166.67,1066.67l-300,-0l-0,266.666l300,0l-0,-266.666Z" style="fill:#84587c;"/></g><g id="Dusk"><rect id="Dusk0" x="0" y="-0" width="300" height="266.667" style="fill:#111318;"/><rect id="Dusk1" x="266.667" y="-0" width="300" height="266.667" style="fill:#181b21;"/><rect id="Dusk2" x="533.333" y="-0" width="300" height="266.667" style="fill:#20242c;"/><path id="Dusk3" d="M800,-0l300,-0l-0,266.667l-300,-0l0,-266.667Z" style="fill:#272b35;"/><path id="Dusk4" d="M1066.67,-0l300,-0l-0,266.667l-300,-0l-0,-266.667Z" style="fill:#2f3541;"/><path id="Dusk5" d="M1333.33,-0l300,-0l0,266.667l-300,-0l0,-266.667Z" style="fill:#3e4656;"/><path id="Dusk6" d="M1600,-0l300,-0l-0,266.667l-300,-0l0,-266.667Z" style="fill:#4d576a;"/><path id="Dusk7" d="M1866.67,-0l300,-0l-0,266.667l-300,-0l-0,-266.667Z" style="fill:#5e6a82;"/></g><g id="Dawn"></g><path id="Dawn0" d="M0,266.667l300,-0l0,266.666l-300,0l0,-266.666Z" style="fill:#9ea5b3;"/><path id="Dawn1" d="M266.667,266.667l300,-0l-0,266.666l-300,0l-0,-266.666Z" style="fill:#b5bac5;"/><path id="Dawn2" d="M533.333,266.667l300,-0l0,266.666l-300,0l0,-266.666Z" style="fill:#cccfd7;"/><path id="Dawn3" d="M800,266.667l300,-0l-0,266.666l-300,0l-0,-266.666Z" style="fill:#e2e4e9;"/><path id="Dawn4" d="M1066.67,266.667l300,-0l-0,266.666l-300,0l-0,-266.666Z" style="fill:#eeeff2;"/><path id="Dawn5" d="M1333.33,266.667l300,-0l0,266.666l-300,0l0,-266.666Z" style="fill:#f6f7f8;"/><path id="Dawn6" d="M1600,266.667l300,-0l-0,266.666l-300,0l0,-266.666Z" style="fill:#f9fafb;"/><path id="Dawn7" d="M1866.67,266.667l300,-0l-0,266.666l-300,0l-0,-266.666Z" style="fill:#fcfcfd;"/></g><g id="Dawn8" serif:id="Dawn"></g></svg>